<svg xmlns="http://www.w3.org/2000/svg" viewBox="0 0 128 128"><defs><linearGradient id="g" x1="0" x2="1" y1="0" y2="1"><stop stop-color="#ff84e8"/><stop offset=".5" stop-color="#c248f4"/><stop offset="1" stop-color="#7345ff"/></linearGradient><filter id="glow"><feGaussianBlur stdDeviation="5"/></filter></defs><rect width="128" height="128" rx="30" fill="#160b29"/><circle cx="64" cy="64" r="49" fill="none" stroke="#a73be5" stroke-opacity=".55" stroke-width="2"/><path d="M100 38C85 18 45 19 32 38c-11 16 2 31 26 35l12 2c14 2 15 12 2 16-11 4-25 0-33-8" fill="none" stroke="#b953e8" stroke-width="20" stroke-linecap="round" filter="url(#glow)" opacity=".8"/><path d="M99 38C85 20 46 20 33 39c-10 15 2 29 26 33l12 2c14 3 15 13 1 17-11 4-25 0-33-8" fill="none" stroke="url(#g)" stroke-width="15" stroke-linecap="round"/><path d="m86 24 18 8-6 19" fill="none" stroke="#ffd0ff" stroke-width="6" stroke-linecap="round" stroke-linejoin="round"/></svg>
